<svg xmlns="http://www.w3.org/2000/svg" width="32" height="32" viewBox="0,0,256,256">
<g transform="translate(-42,-25.6)">
<path style="opacity:1" fill="#66ba48" d="M 99.5,74.5 C 145.833,74.5 192.167,74.5 238.5,74.5C 238.5,110.833 238.5,147.167 238.5,183.5C 238.5,188.167 238.5,192.833 238.5,197.5C 223.5,197.5 208.5,197.5 193.5,197.5C 193.831,171.995 193.498,146.661 192.5,121.5C 177.167,121.5 161.833,121.5 146.5,121.5C 146.5,141.5 146.5,161.5 146.5,181.5C 146.5,187.167 146.5,192.833 146.5,198.5C 130.833,198.5 115.167,198.5 99.5,198.5C 99.5,193.5 99.5,188.5 99.5,183.5C 99.5,147.167 99.5,110.833 99.5,74.5 Z"/>
<path style="opacity:1" fill="#044f62" d="M 146.5,181.5 C 161.833,181.5 177.167,181.5 192.5,181.5C 192.5,187.167 192.5,192.833 192.5,198.5C 208.167,198.5 223.833,198.5 239.5,198.5C 240.486,194.03 240.819,189.363 240.5,184.5C 243.833,184.5 247.167,184.5 250.5,184.5C 263.638,184.582 276.638,185.748 289.5,188C 291.63,190.261 292.964,192.928 293.5,196C 292.14,200.381 290.473,204.548 288.5,208.5C 286.446,208.365 284.779,209.032 283.5,210.5C 282.5,210.5 281.5,210.5 280.5,210.5C 280.624,214.251 282.624,216.251 286.5,216.5C 288.138,217.832 289.804,219.166 291.5,220.5C 287.151,221.413 286.818,222.747 290.5,224.5C 289.458,225.791 288.292,225.791 287,224.5C 286.667,226.047 287.167,227.38 288.5,228.5C 284.706,232.684 280.039,234.684 274.5,234.5C 260.735,235.822 247.069,235.822 233.5,234.5C 239.537,234.829 245.537,234.496 251.5,233.5C 251.376,232.893 251.043,232.56 250.5,232.5C 246.936,231.577 243.269,231.244 239.5,231.5C 233.021,230.509 226.354,230.176 219.5,230.5C 219.5,229.833 219.5,229.167 219.5,228.5C 224.214,228.827 228.88,228.493 233.5,227.5C 233.376,226.893 233.043,226.56 232.5,226.5C 229.098,226.658 225.764,226.324 222.5,225.5C 218.733,224.205 214.733,223.539 210.5,223.5C 203.5,223.5 196.5,223.5 189.5,223.5C 180.343,222.342 171.009,222.176 161.5,223C 161.167,223.333 160.833,223.667 160.5,224C 164.821,224.499 169.154,224.666 173.5,224.5C 177.829,225.061 182.162,225.894 186.5,227C 181.817,226.212 177.15,226.545 172.5,228C 173.737,228.232 174.737,228.732 175.5,229.5C 164.177,230.76 152.844,231.76 141.5,232.5C 132.682,234.228 123.016,235.228 112.5,235.5C 95.1388,235.777 77.8055,235.444 60.5,234.5C 59.3509,234.209 58.6842,233.376 58.5,232C 59.4181,229.914 60.0847,227.747 60.5,225.5C 61.9778,225.762 63.3112,225.429 64.5,224.5C 56.6512,224.605 51.9846,220.938 50.5,213.5C 49.5,213.5 48.5,213.5 47.5,213.5C 46.5349,209.521 46.0349,205.521 46,201.5C 48.0521,200.277 50.2188,199.277 52.5,198.5C 51.5,197.833 50.5,197.167 49.5,196.5C 49.8402,192.575 51.1735,189.075 53.5,186C 54.448,185.517 55.448,185.351 56.5,185.5C 70.5,185.167 84.5,184.833 98.5,184.5C 98.1805,189.363 98.5139,194.03 99.5,198.5C 115.167,198.5 130.833,198.5 146.5,198.5C 146.5,192.833 146.5,187.167 146.5,181.5 Z"/>
<path style="opacity:1" fill="#044f62" d="M 99.5,183.5 C 99.5,188.5 99.5,193.5 99.5,198.5C 98.5139,194.03 98.1805,189.363 98.5,184.5C 84.5,184.833 70.5,185.167 56.5,185.5C 70.633,183.863 84.9663,183.196 99.5,183.5 Z"/>
<path style="opacity:1" fill="#044f62" d="M 239.5,183.5 C 243.371,183.185 247.038,183.518 250.5,184.5C 247.167,184.5 243.833,184.5 240.5,184.5C 240.819,189.363 240.486,194.03 239.5,198.5C 239.5,193.5 239.5,188.5 239.5,183.5 Z"/>
<path style="opacity:1" fill="#66ba48" d="M 192.5,121.5 C 193.498,146.661 193.831,171.995 193.5,197.5C 208.5,197.5 223.5,197.5 238.5,197.5C 238.5,192.833 238.5,188.167 238.5,183.5C 238.833,183.5 239.167,183.5 239.5,183.5C 239.5,188.5 239.5,193.5 239.5,198.5C 223.833,198.5 208.167,198.5 192.5,198.5C 192.5,192.833 192.5,187.167 192.5,181.5C 192.5,161.5 192.5,141.5 192.5,121.5 Z"/>
<path style="opacity:1" fill="#044f62" d="M 283.5,210.5 C 283.586,211.496 283.252,212.329 282.5,213C 284.319,213.74 285.652,214.907 286.5,216.5C 282.624,216.251 280.624,214.251 280.5,210.5C 281.5,210.5 282.5,210.5 283.5,210.5 Z"/>
<path style="opacity:1" fill="#044f62" d="M 291.5,220.5 C 292.043,220.56 292.376,220.893 292.5,221.5C 291.388,222.265 290.721,223.265 290.5,224.5C 286.818,222.747 287.151,221.413 291.5,220.5 Z"/>
<path style="opacity:1" fill="#044f62" d="M 189.5,223.5 C 183.974,223.179 178.64,223.512 173.5,224.5C 169.154,224.666 164.821,224.499 160.5,224C 160.833,223.667 161.167,223.333 161.5,223C 171.009,222.176 180.343,222.342 189.5,223.5 Z"/>
<path style="opacity:1" fill="#044f62" d="M 210.5,223.5 C 214.733,223.539 218.733,224.205 222.5,225.5C 218.236,225.656 214.236,224.989 210.5,223.5 Z"/>
<path style="opacity:1" fill="#044f62" d="M 173.5,224.5 C 182.618,224.145 191.618,224.979 200.5,227C 192.345,229.229 184.012,230.063 175.5,229.5C 174.737,228.732 173.737,228.232 172.5,228C 177.15,226.545 181.817,226.212 186.5,227C 182.162,225.894 177.829,225.061 173.5,224.5 Z"/>
<path style="opacity:1" fill="#044f62" d="M 232.5,226.5 C 233.043,226.56 233.376,226.893 233.5,227.5C 228.88,228.493 224.214,228.827 219.5,228.5C 223.833,227.833 228.167,227.167 232.5,226.5 Z"/>
<path style="opacity:1" fill="#044f62" d="M 219.5,228.5 C 219.5,229.167 219.5,229.833 219.5,230.5C 214.637,230.819 209.97,230.486 205.5,229.5C 210.263,229.774 214.93,229.441 219.5,228.5 Z"/>
<path style="opacity:1" fill="#044f62" d="M 205.5,229.5 C 209.97,230.486 214.637,230.819 219.5,230.5C 226.354,230.176 233.021,230.509 239.5,231.5C 227.814,231.832 216.148,231.499 204.5,230.5C 204.624,229.893 204.957,229.56 205.5,229.5 Z"/>
</g>
</svg>
